Land_normalized_precision_landing11_filtered_grf
version=1
nRows=12
nColumns=37
inDegrees=yes
endheader
time		1_ground_force_vx		1_ground_force_vy		1_ground_force_vz		1_ground_force_px		1_ground_force_py		1_ground_force_pz		1_ground_torque_x		1_ground_torque_y		1_ground_torque_z		2_ground_force_vx		2_ground_force_vy		2_ground_force_vz		2_ground_force_px		2_ground_force_py		2_ground_force_pz		2_ground_torque_x		2_ground_torque_y		2_ground_torque_z		3_ground_force_vx		3_ground_force_vy		3_ground_force_vz		3_ground_force_px		3_ground_force_py		3_ground_force_pz		3_ground_torque_x		3_ground_torque_y		3_ground_torque_z		4_ground_force_vx		4_ground_force_vy		4_ground_force_vz		4_ground_force_px		4_ground_force_py		4_ground_force_pz		4_ground_torque_x		4_ground_torque_y		4_ground_torque_z		
1.252000		-5.715164		818.122251		170.170111		0.065385		0.000000		0.167170		-0.137211		19.641649		4.085479		15.416388		522.576656		85.553104		-0.144404		0.000000		0.176553		0.495070		16.781608		2.747384		0.429822		-0.514603		0.438457		0.381723		1.275980		1.866416		0.015486		0.010648		0.001478		-2.147544		-0.192959		0.375455		-0.350768		1.268833		1.859943		-0.006536		-0.021827		-0.015762		
1.254576		-3.542153		821.418258		169.052014		0.065351		0.000000		0.167322		-0.085801		19.897405		4.094985		15.391148		525.540571		85.093888		-0.144254		0.000000		0.176559		0.489452		16.712656		2.706062		0.534529		-0.520040		0.437954		0.381725		1.275985		1.866428		0.014879		0.009128		0.002220		-2.213635		-0.073425		0.342796		-0.350753		1.268821		1.859976		-0.003208		-0.021623		-0.017641		
1.257152		-1.646228		823.942252		168.125795		0.065343		0.000000		0.167444		-0.040179		20.110928		4.103643		15.634313		528.489354		84.669649		-0.144147		0.000000		0.176599		0.494101		16.702203		2.675873		0.714276		-0.556849		0.442041		0.381722		1.275997		1.866446		0.013345		0.007180		0.002613		-2.297391		0.038650		0.339049		-0.350733		1.268810		1.860006		0.001905		-0.022261		-0.019875		
1.259727		-0.036148		825.572003		167.442937		0.065328		0.000000		0.167474		-0.000886		20.273151		4.111810		16.017575		531.113601		84.204204		-0.144056		0.000000		0.176669		0.504048		16.713327		2.649778		0.934718		-0.603604		0.438319		0.381712		1.276018		1.866473		0.011063		0.005184		0.002628		-2.385283		0.123801		0.362200		-0.350710		1.268804		1.860027		0.007642		-0.023399		-0.022168		
1.262303		1.269449		826.262260		167.052804		0.065292		0.000000		0.167389		0.031306		20.376077		4.119613		16.469246		533.140167		83.638824		-0.143961		0.000000		0.176763		0.516590		16.722987		2.623497		1.157017		-0.635376		0.411079		0.381698		1.276047		1.866515		0.008475		0.003435		0.002337		-2.464276		0.167519		0.402960		-0.350687		1.268798		1.860039		0.012695		-0.024472		-0.024225		
1.264879		2.262091		826.055420		166.977760		0.065247		0.000000		0.167206		0.055921		20.420692		4.127812		16.956406		534.349250		82.946982		-0.143854		0.000000		0.176866		0.530599		16.720829		2.595573		1.347699		-0.633436		0.346885		0.381679		1.276082		1.866576		0.006171		0.002211		0.001864		-2.524117		0.162906		0.445847		-0.350666		1.268792		1.860044		0.015966		-0.024967		-0.025778		
1.267455		2.952929		825.051878		167.191473		0.065213		0.000000		0.166971		0.073068		20.415437		4.137058		17.446517		534.581819		82.129935		-0.143729		0.000000		0.176962		0.545052		16.701032		2.565846		1.485716		-0.592150		0.239610		0.381657		1.276124		1.866659		0.004704		0.001772		0.001325		-2.558888		0.111952		0.473109		-0.350650		1.268784		1.860045		0.016870		-0.024647		-0.026603		
1.270030		3.364302		823.368578		167.614017		0.065212		0.000000		0.166727		0.083236		20.370756		4.146897		17.873984		533.740849		81.202731		-0.143573		0.000000		0.177026		0.557696		16.653520		2.533648		1.563760		-0.520278		0.094133		0.381635		1.276169		1.866762		0.004427		0.002294		0.000794		-2.567147		0.024809		0.470316		-0.350640		1.268773		1.860046		0.015469		-0.023599		-0.026556		
1.272606		3.521345		821.111317		168.127773		0.065254		0.000000		0.166497		0.087037		20.295531		4.155639		18.134248		531.799368		80.182992		-0.143364		0.000000		0.177032		0.564721		16.560844		2.496991		1.584930		-0.437868		-0.072542		0.381614		1.276212		1.866879		0.005369		0.003758		0.000317		-2.550833		-0.082558		0.431915		-0.350637		1.268760		1.860054		0.012400		-0.022151		-0.025621		
1.275182		3.452832		818.357803		168.611113		0.065333		0.000000		0.166274		0.085205		20.194310		4.160753		18.111286		528.804732		79.087992		-0.143086		0.000000		0.176961		0.561787		16.402770		2.453198		1.558441		-0.370316		-0.235485		0.381598		1.276250		1.866999		0.007219		0.005873		-0.000111		-2.513950		-0.191748		0.364546		-0.350640		1.268748		1.860071		0.008617		-0.020674		-0.023944		
1.277758		3.195923		815.165552		168.964285		0.065434		0.000000		0.166035		0.078692		20.071401		4.160320		17.715486		524.857412		77.940117		-0.142727		0.000000		0.176807		0.545597		16.164408		2.400379		1.497709		-0.341751		-0.370745		0.381585		1.276279		1.867113		0.009454		0.008113		-0.000578		-2.461449		-0.284948		0.285531		-0.350648		1.268740		1.860102		0.005068		-0.019402		-0.021801		
1.280333		2.794987		811.599495		169.121697		0.065542		0.000000		0.165758		0.068641		19.931899		4.153423		16.913211		520.090315		76.777712		-0.142289		0.000000		0.176578		0.515241		15.843867		2.338933		1.420890		-0.368149		-0.464361		0.381576		1.276299		1.867213		0.011523		0.009848		-0.001237		-2.398991		-0.347592		0.217216		-0.350660		1.268739		1.860147		0.002467		-0.018336		-0.019531		
